<?xml version="1.0" standalone="no"?>
<!DOCTYPE svg PUBLIC "-//W3C//DTD SVG 20010904//EN"
 "http://www.w3.org/TR/2001/REC-SVG-20010904/DTD/svg10.dtd">
<svg version="1.0" xmlns="http://www.w3.org/2000/svg"
 width="1024.000000pt" height="1024.000000pt" viewBox="0 0 1024.000000 1024.000000"
 preserveAspectRatio="xMidYMid meet">
<metadata>
Created by potrace 1.11, written by Peter Selinger 2001-2013
</metadata>
<g transform="translate(0.000000,1024.000000) scale(0.100000,-0.100000)"
fill="#000000" stroke="none">
<path d="M5017 9604 c-1 -1 -38 -5 -82 -8 -44 -3 -89 -8 -100 -10 -11 -2 -54
-9 -95 -16 -180 -30 -424 -113 -587 -198 -407 -213 -694 -498 -932 -925 -71
-127 -181 -445 -196 -567 -1 -8 -7 -42 -13 -75 -22 -119 -25 -218 -28 -695 -1
-267 -2 -487 -3 -490 0 -3 -101 -5 -223 -5 -123 0 -258 -3 -302 -8 -139 -14
-290 -75 -408 -165 -74 -56 -85 -66 -152 -145 -91 -107 -163 -269 -184 -411
-4 -28 -7 -1054 -7 -2281 l0 -2230 24 -90 c89 -340 364 -589 706 -639 60 -9
745 -11 2715 -11 l2635 2 88 21 c338 83 572 330 653 687 4 17 8 1033 9 2259 2
2347 3 2284 -41 2420 -37 116 -114 243 -199 331 -91 95 -267 198 -390 229
-107 27 -126 28 -390 30 l-259 2 -2 504 c-1 278 -4 530 -8 560 -11 87 -26 181
-37 230 -6 25 -12 52 -14 60 -27 127 -88 296 -157 435 -126 254 -286 464 -502
660 -43 39 -85 74 -94 79 -9 5 -44 31 -77 56 -96 75 -257 167 -405 233 -91 40
-300 108 -375 121 -16 3 -39 8 -50 10 -132 26 -259 38 -408 40 -60 1 -109 1
-110 0z m373 -839 c569 -126 993 -597 1046 -1165 7 -69 12 -931 6 -965 -3 -20
-11 -20 -1325 -20 l-1321 0 0 450 c0 499 4 570 39 713 42 175 136 375 232 493
118 145 226 242 368 329 142 87 330 156 480 176 28 3 52 8 55 11 11 12 349 -6
420 -22z m-80 -4308 c211 -51 407 -187 521 -363 54 -81 107 -207 123 -289 4
-16 9 -41 11 -55 8 -40 8 -169 0 -240 -19 -168 -111 -353 -241 -486 -93 -97
-252 -188 -391 -225 -115 -31 -307 -32 -423 -1 -306 82 -539 316 -616 621
-119 467 180 941 656 1041 102 21 264 20 360 -3z"/>
</g>
</svg>
